<?xml version="1.0" encoding="UTF-8"?>
<svg id="uuid-f281ca63-3f3b-4bdf-8859-30f052d72e3d" data-name="Layer 2" xmlns="http://www.w3.org/2000/svg" width="118mm" height="113mm" viewBox="0 0 334.4 320.4">
  <defs>
    <style>
      .uuid-4ea1a5fd-a673-4d3f-97de-0de2b60e26c1 {
        fill: #fff;
      }
    </style>
  </defs>
  <g id="uuid-69b7204c-268f-4056-a1b5-268971fd616d" data-name="Capa 1">
    <g>
      <path class="uuid-4ea1a5fd-a673-4d3f-97de-0de2b60e26c1" d="M163.4,0c.4,0,.6,.3,.6,.6V158.3c0,.4-.2,.6-.6,.6H.6c-.4,0-.6-.2-.6-.6V.6C0,.2,.3,0,.6,0H163.4ZM14.2,144.6H149.7V14.2H14.2V144.6ZM142.6,20.7c.3,0,.4,.1,.4,.4v116.5c0,.3-.1,.4-.4,.4H21.3c-.3,0-.4-.1-.4-.4V21.2c0-.3,.1-.4,.4-.4h121.4ZM35,124h93.9V34.8H35V124Z"/>
      <path class="uuid-4ea1a5fd-a673-4d3f-97de-0de2b60e26c1" d="M163.3,163.3c.3,0,.4,.3,.4,.5v156c0,.4-.1,.5-.4,.5h-13c-.4,0-.5-.2-.5-.5V177.3H15.6v142.5c0,.4-.1,.5-.4,.5H2.1c-.4,0-.5-.2-.5-.5V163.8c0-.4,.3-.5,.5-.5H163.3Zm-84.4,20.5c.3,0,.4,.1,.4,.4v135.6c0,.4-.1,.5-.4,.5h-13c-.4,0-.5-.2-.5-.5v-122.2h-29.1v122.2c0,.4-.2,.5-.5,.5h-13c-.3,0-.4-.2-.4-.5V184.2c0-.3,.1-.4,.4-.4h56.3Zm63.8,0c.4,0,.5,.1,.5,.4v135.6c0,.4-.2,.5-.5,.5h-13c-.4,0-.5-.2-.5-.5v-122.2h-29.1v122.2c0,.4-.2,.5-.5,.5h-12.9c-.4,0-.5-.2-.5-.5V184.2c0-.3,.3-.4,.5-.4h56.2Z"/>
      <path class="uuid-4ea1a5fd-a673-4d3f-97de-0de2b60e26c1" d="M166,.3V51.9c0,.4,.1,.6,.4,.6h13.2c.4,0,.6-.2,.6-.6V.3h-14.2Z"/>
      <g>
        <path class="uuid-4ea1a5fd-a673-4d3f-97de-0de2b60e26c1" d="M334.4,0H183.1c-.3,0-.5,.2-.6,.6V158.3c0,.4,.2,.6,.6,.6h13.2c.3,0,.4-.2,.4-.6V14.2h137.6V0Z"/>
        <path class="uuid-4ea1a5fd-a673-4d3f-97de-0de2b60e26c1" d="M203.4,21.2v54.5c0,.3,.1,.4,.4,.4h130.5v-14.1h-116.8v-27.2h116.8v-14.1H203.8c-.3,0-.4,.1-.4,.4Z"/>
        <path class="uuid-4ea1a5fd-a673-4d3f-97de-0de2b60e26c1" d="M334.4,82.7H203.8c-.3,0-.4,.1-.4,.4v75.1c0,.4,.1,.6,.4,.6h13.2c.4,0,.6-.2,.6-.6v-61.5h116.8v-14.1Z"/>
      </g>
      <g>
        <path class="uuid-4ea1a5fd-a673-4d3f-97de-0de2b60e26c1" d="M323.7,240.9l9.8-5.7v-47.8l-29.2-25H172c-.3,0-.5,.2-.5,.5v155.9c0,.4,.2,.5,.5,.5h137.5l24-21.8v-51.1l-9.8-5.7Zm-4.3,53.8l-12.7,10.7h-121.2V176.5h116.8l17.1,13.9v104.4Z"/>
        <path class="uuid-4ea1a5fd-a673-4d3f-97de-0de2b60e26c1" d="M312.4,244.2h-119.9c-.3,0-.4,.1-.4,.4v53.9c0,.3,.1,.4,.4,.4h112.3l8.1-7.1v-47.2c0-.3-.2-.4-.5-.4Zm-13.5,40.8h-92.8v-26.9h92.8v26.9Z"/>
        <path class="uuid-4ea1a5fd-a673-4d3f-97de-0de2b60e26c1" d="M192.5,182.9c-.3,0-.4,.1-.4,.4v53.9c0,.3,.1,.4,.4,.4h119.9c.4,0,.5-.1,.5-.4l-.9-46.4-9.9-7.9h-109.6Zm106.4,40.8h-92.8v-26.9h92.8v26.9Z"/>
      </g>
    </g>
  </g>
</svg>