<?xml version="1.0" encoding="UTF-8"?>
<svg id="uuid-842063ab-dd46-4d8e-8f33-75bfbd61bcdc" data-name="Layer 2" xmlns="http://www.w3.org/2000/svg" width="113.8mm" height="46.2mm" viewBox="0 0 322.7 130.9">
  <defs>
    <style>
      .uuid-4f2de4d4-ce03-4d6c-8348-312f94f3c8e6 {
        fill: #f299c1;
      }

      .uuid-2595be64-7eb6-4bd6-ab18-c960987eb412 {
        fill: #1d1d1b;
      }
    </style>
  </defs>
  <g id="uuid-1c1787b8-05da-4de2-932b-408b91466503" data-name="Capa 1">
    <g>
      <path class="uuid-2595be64-7eb6-4bd6-ab18-c960987eb412" d="M17.3,34.6c-2.5,0-4.8-.4-6.9-1.3-2.1-.8-4-2-5.5-3.5-1.5-1.5-2.8-3.3-3.6-5.3-.9-2-1.3-4.2-1.3-6.6s.4-4.6,1.3-6.6c.9-2,2.1-3.8,3.6-5.3,1.5-1.5,3.4-2.7,5.5-3.5,2.1-.8,4.4-1.3,6.9-1.3s4.8,.4,6.8,1.2c2.1,.8,3.9,2,5.5,3.5,1.6,1.5,2.8,3.3,3.6,5.3,.9,2,1.3,4.2,1.3,6.6s-.4,4.6-1.3,6.6c-.9,2-2.1,3.8-3.6,5.3-1.6,1.5-3.4,2.7-5.5,3.5s-4.4,1.2-6.8,1.2Zm0-4.1c1.8,0,3.5-.3,5-.9,1.5-.6,2.9-1.5,4-2.6,1.1-1.1,2-2.5,2.6-4,.6-1.5,1-3.2,1-5s-.3-3.5-1-5c-.6-1.5-1.5-2.8-2.6-4-1.1-1.1-2.5-2-4-2.6-1.5-.6-3.2-.9-5-.9s-3.5,.3-5,.9c-1.5,.6-2.9,1.5-4,2.6-1.1,1.1-2,2.5-2.7,4-.6,1.5-1,3.2-1,5s.3,3.5,1,5c.6,1.5,1.5,2.8,2.7,4,1.1,1.1,2.5,2,4,2.6,1.5,.6,3.2,.9,5,.9Z"/>
      <path class="uuid-2595be64-7eb6-4bd6-ab18-c960987eb412" d="M51.9,6L58.2,0h5.7l-7.8,6h-4.2Z"/>
      <path class="uuid-2595be64-7eb6-4bd6-ab18-c960987eb412" d="M83.4,34.2h-4.6V1.7h22.9V5.8h-18.3v28.5Zm-.5-17.1h16.8v4h-16.8v-4Z"/>
      <path class="uuid-2595be64-7eb6-4bd6-ab18-c960987eb412" d="M106.5,34.2L121.2,1.7h4.6l14.8,32.5h-4.9l-13.1-29.9h1.9l-13.1,29.9h-4.8Zm6.3-8.1l1.3-3.7h18.3l1.3,3.7h-20.9Z"/>
      <path class="uuid-2595be64-7eb6-4bd6-ab18-c960987eb412" d="M150,34.2V1.7h12.7c2.8,0,5.3,.4,7.3,1.3,2,.9,3.6,2.2,4.6,3.9,1.1,1.7,1.6,3.7,1.6,6.1s-.5,4.4-1.6,6.1c-1.1,1.7-2.6,3-4.6,3.9-2,.9-4.4,1.3-7.3,1.3h-10.1l2.1-2.1v12h-4.6Zm4.6-11.6l-2.1-2.3h10c3,0,5.2-.6,6.8-1.9,1.5-1.3,2.3-3.1,2.3-5.4s-.8-4.1-2.3-5.4c-1.5-1.3-3.8-1.9-6.8-1.9h-10l2.1-2.3V22.7Zm17.1,11.6l-8.3-11.8h5l8.4,11.8h-5.1Z"/>
      <path class="uuid-2595be64-7eb6-4bd6-ab18-c960987eb412" d="M188.4,34.2V1.7h12.7c2.8,0,5.3,.4,7.3,1.3,2,.9,3.6,2.2,4.6,3.9,1.1,1.7,1.6,3.7,1.6,6.1s-.5,4.4-1.6,6.1c-1.1,1.7-2.6,3-4.6,3.9-2,.9-4.4,1.3-7.3,1.3h-10.1l2.1-2.1v12h-4.6Zm4.6-11.6l-2.1-2.3h10c3,0,5.2-.6,6.8-1.9,1.5-1.3,2.3-3.1,2.3-5.4s-.8-4.1-2.3-5.4c-1.5-1.3-3.8-1.9-6.8-1.9h-10l2.1-2.3V22.7Zm17.1,11.6l-8.3-11.8h5l8.4,11.8h-5.1Z"/>
      <path class="uuid-2595be64-7eb6-4bd6-ab18-c960987eb412" d="M231.4,30.2h18.9v4h-23.6V1.7h22.9V5.8h-18.3V30.2Zm-.4-14.4h16.7v3.9h-16.7v-3.9Z"/>
      <path class="uuid-2595be64-7eb6-4bd6-ab18-c960987eb412" d="M262.5,34.2V1.7h4.6V30.2h17.6v4h-22.2Z"/>
      <path class="uuid-2595be64-7eb6-4bd6-ab18-c960987eb412" d="M294.8,34.2V1.7h4.6V30.2h17.6v4h-22.2Z"/>
      <path class="uuid-2595be64-7eb6-4bd6-ab18-c960987eb412" d="M2.6,82.4V49.9h3.8l14.6,24.6h-2l14.4-24.6h3.8v32.5h-4.4v-25.5h1l-12.8,21.5h-2.1L5.9,56.9h1.2v25.5H2.6Z"/>
      <path class="uuid-2595be64-7eb6-4bd6-ab18-c960987eb412" d="M46.7,82.4l14.7-32.5h4.6l14.8,32.5h-4.9l-13.1-29.9h1.9l-13.1,29.9h-4.8Zm6.3-8.1l1.3-3.7h18.3l1.3,3.7h-20.9Z"/>
      <path class="uuid-2595be64-7eb6-4bd6-ab18-c960987eb412" d="M90.2,82.4V49.9h3.8l21.5,26.7h-2v-26.7h4.6v32.5h-3.8l-21.5-26.7h2v26.7h-4.6Z"/>
      <path class="uuid-2595be64-7eb6-4bd6-ab18-c960987eb412" d="M139,82.4v-28.5h-11.1v-4h26.9v4h-11.1v28.5h-4.6Z"/>
      <path class="uuid-2595be64-7eb6-4bd6-ab18-c960987eb412" d="M164.5,82.4V49.9h4.6v32.5h-4.6Z"/>
      <path class="uuid-2595be64-7eb6-4bd6-ab18-c960987eb412" d="M183.5,82.4V49.9h4.6v28.5h17.6v4h-22.2Z"/>
      <path class="uuid-2595be64-7eb6-4bd6-ab18-c960987eb412" d="M215.7,82.4V49.9h4.6v28.5h17.6v4h-22.2Z"/>
      <path class="uuid-2595be64-7eb6-4bd6-ab18-c960987eb412" d="M243,82.4l14.7-32.5h4.6l14.8,32.5h-4.9l-13.1-29.9h1.9l-13.1,29.9h-4.8Zm6.3-8.1l1.3-3.7h18.3l1.3,3.7h-20.9Z"/>
      <path class="uuid-4f2de4d4-ce03-4d6c-8348-312f94f3c8e6" d="M301.9,68v-3.7h20.8v3.7h-20.8Zm8.4,8.3v-20.3h3.9v20.3h-3.9Z"/>
      <path class="uuid-2595be64-7eb6-4bd6-ab18-c960987eb412" d="M2.6,130.6v-32.5h14.6c3.7,0,6.6,.8,8.6,2.3,2,1.5,3,3.6,3,6.2s-.4,3.2-1.2,4.5-1.8,2.1-3.2,2.8c-1.3,.7-2.8,1-4.3,1l.8-1.4c1.9,0,3.5,.3,4.9,1,1.4,.6,2.6,1.6,3.4,2.9,.8,1.3,1.3,2.8,1.3,4.7,0,2.8-1,4.9-3.1,6.5s-5.2,2.3-9.3,2.3H2.6Zm4.6-3.8h10.7c2.6,0,4.5-.4,5.9-1.3,1.4-.9,2-2.2,2-4.1s-.7-3.3-2-4.1c-1.4-.9-3.3-1.3-5.9-1.3H6.9v-3.8h9.9c2.4,0,4.2-.4,5.5-1.3,1.3-.9,1.9-2.2,1.9-3.9s-.6-3-1.9-3.9c-1.3-.9-3.1-1.3-5.5-1.3H7.3v25Z"/>
      <path class="uuid-2595be64-7eb6-4bd6-ab18-c960987eb412" d="M42.4,130.6v-32.5h4.6v28.5h17.6v4h-22.2Z"/>
      <path class="uuid-2595be64-7eb6-4bd6-ab18-c960987eb412" d="M88.7,130.9c-2.5,0-4.8-.4-6.9-1.3-2.1-.8-4-2-5.5-3.5-1.5-1.5-2.8-3.3-3.6-5.3-.9-2-1.3-4.2-1.3-6.6s.4-4.6,1.3-6.6c.9-2,2.1-3.8,3.6-5.3,1.5-1.5,3.4-2.7,5.5-3.5,2.1-.8,4.4-1.3,6.9-1.3s4.8,.4,6.8,1.2c2.1,.8,3.9,2,5.5,3.5,1.6,1.5,2.8,3.3,3.6,5.3,.9,2,1.3,4.2,1.3,6.6s-.4,4.6-1.3,6.6c-.9,2-2.1,3.8-3.6,5.3-1.6,1.5-3.4,2.7-5.5,3.5s-4.4,1.2-6.8,1.2Zm0-4.1c1.8,0,3.5-.3,5-.9,1.5-.6,2.9-1.5,4-2.6,1.1-1.1,2-2.5,2.6-4,.6-1.5,1-3.2,1-5s-.3-3.5-1-5c-.6-1.5-1.5-2.8-2.6-4-1.1-1.1-2.5-2-4-2.6-1.5-.6-3.2-.9-5-.9s-3.5,.3-5,.9c-1.5,.6-2.9,1.5-4,2.6-1.1,1.1-2,2.5-2.7,4-.6,1.5-1,3.2-1,5s.3,3.5,1,5c.6,1.5,1.5,2.8,2.7,4,1.1,1.1,2.5,2,4,2.6,1.5,.6,3.2,.9,5,.9Z"/>
      <path class="uuid-2595be64-7eb6-4bd6-ab18-c960987eb412" d="M132.2,130.9c-2.5,0-4.8-.4-6.8-1.2s-3.9-2-5.4-3.5-2.7-3.3-3.6-5.3c-.9-2-1.3-4.2-1.3-6.6s.4-4.6,1.3-6.6c.9-2,2.1-3.8,3.6-5.3,1.5-1.5,3.4-2.7,5.5-3.5,2.1-.8,4.4-1.2,6.8-1.2s4.8,.4,6.9,1.3c2.1,.9,3.9,2.1,5.4,3.8l-3,2.9c-1.2-1.3-2.6-2.3-4.2-2.9-1.5-.6-3.2-1-5-1s-3.5,.3-5.1,.9c-1.6,.6-2.9,1.5-4.1,2.6-1.1,1.1-2,2.4-2.7,4-.6,1.5-1,3.2-1,5s.3,3.5,1,5c.6,1.5,1.5,2.9,2.7,4,1.1,1.1,2.5,2,4.1,2.6,1.6,.6,3.3,.9,5.1,.9s3.4-.3,5-1c1.5-.6,2.9-1.6,4.2-2.9l3,2.9c-1.5,1.7-3.3,2.9-5.4,3.8-2.1,.9-4.4,1.3-7,1.3Z"/>
      <path class="uuid-2595be64-7eb6-4bd6-ab18-c960987eb412" d="M160.5,130.6h-4.6v-32.5h4.6v32.5Zm19.1-14.5h-19.5v-4h19.5v4Zm-.4-18h4.6v32.5h-4.6v-32.5Z"/>
    </g>
  </g>
</svg>