<?xml version="1.0" encoding="UTF-8"?>
<svg id="uuid-f7cc351e-d62b-4a89-9901-43cb3b8cd29f" data-name="Layer 2" xmlns="http://www.w3.org/2000/svg" width="102.7mm" height="36.6mm" viewBox="0 0 291 103.8">
  <defs>
    <style>
      .uuid-8663df1d-53fb-4141-8493-0cc17eebc1a2 {
        fill: #fff;
      }

      .uuid-42e35504-7f5b-4e94-9a5b-a208349f3cf7 {
        fill: none;
        stroke: #fff;
        stroke-miterlimit: 10;
      }

      .uuid-e0628954-b857-47d8-bed2-dccad12e693c {
        fill: #f299c1;
      }
    </style>
  </defs>
  <g id="uuid-77757cf7-a288-4108-a093-ad89b761b8ef" data-name="Capa 1">
    <g>
      <g>
        <path class="uuid-8663df1d-53fb-4141-8493-0cc17eebc1a2" d="M143.4,100.2l3.4-7.5h1.1l3.4,7.5h-1.1l-3-6.9h.4l-3,6.9h-1.1Zm1.4-1.9l.3-.9h4.2l.3,.9h-4.8Z"/>
        <path class="uuid-8663df1d-53fb-4141-8493-0cc17eebc1a2" d="M154.5,95.4v-.8h3.6v.8h-3.6Zm2.8,4.9c-.6,0-1-.2-1.3-.5s-.5-.7-.5-1.3v-5.2h1v5.2c0,.3,0,.5,.2,.7,.2,.2,.4,.2,.7,.2s.6,0,.8-.3l.3,.7c-.2,.1-.3,.2-.6,.3-.2,0-.4,0-.7,0Z"/>
        <path class="uuid-8663df1d-53fb-4141-8493-0cc17eebc1a2" d="M162,95.4v-.8h3.6v.8h-3.6Zm2.8,4.9c-.6,0-1-.2-1.3-.5s-.5-.7-.5-1.3v-5.2h1v5.2c0,.3,0,.5,.2,.7,.2,.2,.4,.2,.7,.2s.6,0,.8-.3l.3,.7c-.2,.1-.3,.2-.6,.3-.2,0-.4,0-.7,0Z"/>
        <path class="uuid-8663df1d-53fb-4141-8493-0cc17eebc1a2" d="M172.8,100.3c-.6,0-1.1-.1-1.5-.4-.4-.3-.8-.6-1.1-1-.3-.4-.4-.9-.4-1.5s.1-1.1,.4-1.5c.3-.4,.6-.8,1.1-1,.4-.2,1-.4,1.5-.4s1.1,.1,1.5,.4,.8,.6,1.1,1,.4,.9,.4,1.5-.1,1.1-.4,1.5c-.3,.4-.6,.8-1.1,1-.4,.2-1,.4-1.5,.4Zm0-.9c.4,0,.7,0,1-.2,.3-.2,.5-.4,.7-.7,.2-.3,.2-.7,.2-1.1s0-.8-.2-1.1c-.2-.3-.4-.5-.7-.7-.3-.2-.6-.2-1-.2s-.7,0-1,.2c-.3,.2-.5,.4-.7,.7-.2,.3-.3,.6-.3,1.1s0,.8,.3,1.1c.2,.3,.4,.5,.7,.7,.3,.2,.6,.2,1,.2Z"/>
        <path class="uuid-8663df1d-53fb-4141-8493-0cc17eebc1a2" d="M180.3,100.2v-5.7h1v1.2c0-.4,.3-.7,.7-.9,.4-.2,.8-.3,1.4-.3v1s0,0-.1,0h-.1c-.6,0-1,.2-1.3,.5s-.5,.8-.5,1.4v2.8h-1Z"/>
        <path class="uuid-8663df1d-53fb-4141-8493-0cc17eebc1a2" d="M190.9,94.5c.5,0,.9,0,1.2,.3,.4,.2,.6,.5,.8,.8,.2,.4,.3,.8,.3,1.4v3.3h-1v-3.2c0-.5-.1-1-.4-1.2-.3-.3-.6-.4-1.1-.4s-.7,0-1,.2c-.3,.1-.5,.4-.6,.6-.1,.3-.2,.6-.2,1v2.9h-1v-5.7h1v1.5l-.2-.4c.2-.4,.5-.7,.9-.9,.4-.2,.8-.3,1.3-.3Z"/>
        <path class="uuid-8663df1d-53fb-4141-8493-0cc17eebc1a2" d="M200.9,100.3c-.6,0-1.1-.1-1.6-.4-.5-.3-.8-.6-1.1-1-.3-.4-.4-.9-.4-1.5s.1-1.1,.4-1.5c.2-.4,.6-.8,1-1s.9-.4,1.5-.4,1,.1,1.5,.4c.4,.2,.8,.6,1,1,.2,.4,.4,1,.4,1.5s0,0,0,.1c0,0,0,.1,0,.2h-4.8v-.7h4.3l-.4,.3c0-.4,0-.7-.2-1-.2-.3-.4-.5-.6-.7-.3-.2-.6-.2-1-.2s-.7,0-1,.2c-.3,.2-.5,.4-.7,.7s-.2,.6-.2,1v.2c0,.4,0,.7,.3,1,.2,.3,.4,.5,.7,.7,.3,.2,.7,.2,1.1,.2s.6,0,.9-.2c.3-.1,.5-.3,.7-.5l.6,.7c-.3,.3-.6,.5-1,.7-.4,.2-.8,.2-1.3,.2Z"/>
        <path class="uuid-8663df1d-53fb-4141-8493-0cc17eebc1a2" d="M208.3,102.4c-.3,0-.5,0-.8-.1s-.5-.2-.7-.4l.4-.8c.1,.1,.3,.2,.5,.3,.2,0,.4,.1,.5,.1s.5,0,.6-.2c.2-.1,.3-.4,.5-.7l.4-.8h.1l2.2-5.3h1l-2.8,6.2c-.2,.4-.3,.7-.6,.9-.2,.2-.4,.4-.7,.5-.2,0-.5,.1-.8,.1Zm1.4-2l-2.6-5.9h1.1l2.2,5.1-.7,.8Z"/>
        <path class="uuid-8663df1d-53fb-4141-8493-0cc17eebc1a2" d="M218.8,100.3c-.5,0-.9,0-1.3-.2-.4-.1-.8-.3-1-.5l.4-.8c.2,.2,.5,.3,.9,.4s.7,.2,1.1,.2,.8,0,1-.2c.2-.1,.3-.3,.3-.6s0-.3-.2-.4c-.1-.1-.3-.2-.5-.2-.2,0-.4,0-.7-.1-.3,0-.5,0-.8-.1-.3,0-.5-.1-.7-.3-.2-.1-.4-.3-.5-.5-.1-.2-.2-.5-.2-.8s0-.6,.3-.9c.2-.3,.5-.5,.8-.6,.4-.1,.8-.2,1.3-.2s.7,0,1.1,.1,.7,.2,.9,.4l-.4,.8c-.3-.2-.5-.3-.8-.4-.3,0-.6,0-.8,0-.5,0-.8,0-1,.2-.2,.1-.3,.3-.3,.6s0,.3,.2,.4c.1,.1,.3,.2,.5,.2,.2,0,.4,.1,.7,.1,.3,0,.5,0,.8,.1,.3,0,.5,.1,.7,.3,.2,.1,.4,.3,.5,.5,.1,.2,.2,.4,.2,.8s-.1,.6-.3,.9c-.2,.2-.5,.4-.8,.6-.4,.1-.8,.2-1.3,.2Z"/>
        <path class="uuid-8663df1d-53fb-4141-8493-0cc17eebc1a2" d="M233.5,100.3c-.4,0-.8,0-1.1-.2-.3-.1-.6-.3-.7-.6-.2-.3-.3-.5-.3-.9s0-.6,.2-.8,.4-.5,.7-.6c.3-.2,.8-.2,1.3-.2h1.8v.7h-1.8c-.5,0-.9,0-1,.3-.2,.2-.3,.4-.3,.6s.1,.5,.3,.7c.2,.2,.5,.3,.9,.3s.7,0,1-.3c.3-.2,.5-.4,.6-.8l.2,.7c-.1,.3-.4,.6-.7,.8-.3,.2-.8,.3-1.3,.3Zm1.9,0v-3.5c0-.4-.2-.8-.4-1-.3-.2-.6-.4-1.1-.4s-.7,0-1,.2c-.3,.1-.6,.3-.8,.4l-.4-.8c.3-.2,.6-.4,1.1-.5s.8-.2,1.3-.2c.8,0,1.4,.2,1.8,.6,.4,.4,.6,1,.6,1.7v3.4h-1Z"/>
        <path class="uuid-8663df1d-53fb-4141-8493-0cc17eebc1a2" d="M240.7,95.4v-.8h3.6v.8h-3.6Zm2.8,4.9c-.6,0-1-.2-1.3-.5s-.5-.7-.5-1.3v-5.2h1v5.2c0,.3,0,.5,.2,.7,.2,.2,.4,.2,.7,.2s.6,0,.8-.3l.3,.7c-.2,.1-.3,.2-.6,.3s-.4,0-.7,0Z"/>
        <path class="uuid-8663df1d-53fb-4141-8493-0cc17eebc1a2" d="M255.4,100.2v-7.5h1.1v6.6h4.1v.9h-5.1Z"/>
        <path class="uuid-8663df1d-53fb-4141-8493-0cc17eebc1a2" d="M266.5,100.3c-.4,0-.8,0-1.1-.2-.3-.1-.6-.3-.7-.6-.2-.3-.3-.5-.3-.9s0-.6,.2-.8,.4-.5,.7-.6c.3-.2,.8-.2,1.3-.2h1.8v.7h-1.8c-.5,0-.9,0-1,.3-.2,.2-.3,.4-.3,.6s.1,.5,.3,.7c.2,.2,.5,.3,.9,.3s.7,0,1-.3c.3-.2,.5-.4,.6-.8l.2,.7c-.1,.3-.4,.6-.7,.8-.3,.2-.8,.3-1.3,.3Zm1.9,0v-3.5c0-.4-.2-.8-.4-1-.3-.2-.6-.4-1.1-.4s-.7,0-1,.2c-.3,.1-.6,.3-.8,.4l-.4-.8c.3-.2,.6-.4,1.1-.5s.8-.2,1.3-.2c.8,0,1.4,.2,1.8,.6,.4,.4,.6,1,.6,1.7v3.4h-1Z"/>
        <path class="uuid-8663df1d-53fb-4141-8493-0cc17eebc1a2" d="M275.5,100.2l-2.1-5.7h1l1.9,5.1h-.5l2-5.1h.9l1.9,5.1h-.5l1.9-5.1h.9l-2.1,5.7h-1l-1.8-4.7h.3l-1.8,4.7h-1Z"/>
      </g>
      <g>
        <path class="uuid-8663df1d-53fb-4141-8493-0cc17eebc1a2" d="M152.2,18.6c-1.1,0-2.2-.2-3.1-.6-1-.4-1.8-.9-2.5-1.6-.7-.7-1.3-1.5-1.6-2.4-.4-.9-.6-1.9-.6-3s.2-2.1,.6-3c.4-.9,.9-1.7,1.6-2.4,.7-.7,1.5-1.2,2.5-1.6,1-.4,2-.6,3.1-.6s2.2,.2,3.1,.6c.9,.4,1.8,.9,2.5,1.6s1.3,1.5,1.6,2.4c.4,.9,.6,1.9,.6,3s-.2,2.1-.6,3c-.4,.9-.9,1.7-1.6,2.4s-1.5,1.2-2.5,1.6c-.9,.4-2,.6-3.1,.6Zm0-1.9c.8,0,1.6-.1,2.3-.4s1.3-.7,1.8-1.2,.9-1.1,1.2-1.8c.3-.7,.4-1.4,.4-2.3s-.1-1.6-.4-2.3c-.3-.7-.7-1.3-1.2-1.8-.5-.5-1.1-.9-1.8-1.2s-1.5-.4-2.3-.4-1.6,.1-2.3,.4-1.3,.7-1.8,1.2c-.5,.5-.9,1.1-1.2,1.8-.3,.7-.4,1.4-.4,2.3s.1,1.6,.4,2.3c.3,.7,.7,1.3,1.2,1.8,.5,.5,1.1,.9,1.8,1.2s1.5,.4,2.3,.4Z"/>
        <path class="uuid-8663df1d-53fb-4141-8493-0cc17eebc1a2" d="M167.9,5.6l2.9-2.7h2.6l-3.5,2.7h-1.9Z"/>
        <path class="uuid-8663df1d-53fb-4141-8493-0cc17eebc1a2" d="M182.3,18.4h-2.1V3.6h10.4v1.8h-8.3v12.9Zm-.2-7.8h7.6v1.8h-7.6v-1.8Z"/>
        <path class="uuid-8663df1d-53fb-4141-8493-0cc17eebc1a2" d="M192.8,18.4l6.7-14.8h2.1l6.7,14.8h-2.2l-6-13.6h.8l-6,13.6h-2.2Zm2.8-3.7l.6-1.7h8.3l.6,1.7h-9.5Z"/>
        <path class="uuid-8663df1d-53fb-4141-8493-0cc17eebc1a2" d="M212.6,18.4V3.6h5.8c1.3,0,2.4,.2,3.3,.6,.9,.4,1.6,1,2.1,1.8,.5,.8,.7,1.7,.7,2.8s-.2,2-.7,2.8c-.5,.8-1.2,1.4-2.1,1.8-.9,.4-2,.6-3.3,.6h-4.6l.9-1v5.5h-2.1Zm2.1-5.3l-.9-1h4.5c1.4,0,2.4-.3,3.1-.9,.7-.6,1-1.4,1-2.5s-.3-1.9-1-2.4c-.7-.6-1.7-.9-3.1-.9h-4.5l.9-1.1V13.1Zm7.8,5.3l-3.8-5.4h2.3l3.8,5.4h-2.3Z"/>
        <path class="uuid-8663df1d-53fb-4141-8493-0cc17eebc1a2" d="M230,18.4V3.6h5.8c1.3,0,2.4,.2,3.3,.6,.9,.4,1.6,1,2.1,1.8,.5,.8,.7,1.7,.7,2.8s-.2,2-.7,2.8c-.5,.8-1.2,1.4-2.1,1.8-.9,.4-2,.6-3.3,.6h-4.6l.9-1v5.5h-2.1Zm2.1-5.3l-.9-1h4.5c1.4,0,2.4-.3,3.1-.9,.7-.6,1-1.4,1-2.5s-.3-1.9-1-2.4c-.7-.6-1.7-.9-3.1-.9h-4.5l.9-1.1V13.1Zm7.8,5.3l-3.8-5.4h2.3l3.8,5.4h-2.3Z"/>
        <path class="uuid-8663df1d-53fb-4141-8493-0cc17eebc1a2" d="M249.6,16.5h8.6v1.8h-10.7V3.6h10.4v1.8h-8.3v11.1Zm-.2-6.6h7.6v1.8h-7.6v-1.8Z"/>
        <path class="uuid-8663df1d-53fb-4141-8493-0cc17eebc1a2" d="M263.7,18.4V3.6h2.1v12.9h8v1.8h-10.1Z"/>
        <path class="uuid-8663df1d-53fb-4141-8493-0cc17eebc1a2" d="M278.3,18.4V3.6h2.1v12.9h8v1.8h-10.1Z"/>
        <path class="uuid-8663df1d-53fb-4141-8493-0cc17eebc1a2" d="M145.6,45.4v-14.8h1.7l6.6,11.2h-.9l6.5-11.2h1.7v14.8h-2v-11.6h.5l-5.8,9.8h-1l-5.9-9.8h.5v11.6h-2Z"/>
        <path class="uuid-8663df1d-53fb-4141-8493-0cc17eebc1a2" d="M165.6,45.4l6.7-14.8h2.1l6.7,14.8h-2.2l-6-13.6h.8l-6,13.6h-2.2Zm2.8-3.7l.6-1.7h8.3l.6,1.7h-9.5Z"/>
        <path class="uuid-8663df1d-53fb-4141-8493-0cc17eebc1a2" d="M185.4,45.4v-14.8h1.7l9.8,12.1h-.9v-12.1h2.1v14.8h-1.7l-9.8-12.1h.9v12.1h-2.1Z"/>
        <path class="uuid-8663df1d-53fb-4141-8493-0cc17eebc1a2" d="M207.6,45.4v-12.9h-5.1v-1.8h12.2v1.8h-5.1v12.9h-2.1Z"/>
        <path class="uuid-8663df1d-53fb-4141-8493-0cc17eebc1a2" d="M219.1,45.4v-14.8h2.1v14.8h-2.1Z"/>
        <path class="uuid-8663df1d-53fb-4141-8493-0cc17eebc1a2" d="M227.8,45.4v-14.8h2.1v12.9h8v1.8h-10.1Z"/>
        <path class="uuid-8663df1d-53fb-4141-8493-0cc17eebc1a2" d="M242.4,45.4v-14.8h2.1v12.9h8v1.8h-10.1Z"/>
        <path class="uuid-8663df1d-53fb-4141-8493-0cc17eebc1a2" d="M254.8,45.4l6.7-14.8h2.1l6.7,14.8h-2.2l-6-13.6h.8l-6,13.6h-2.2Zm2.8-3.7l.6-1.7h8.3l.6,1.7h-9.5Z"/>
        <path class="uuid-e0628954-b857-47d8-bed2-dccad12e693c" d="M281.6,38.8v-1.7h9.5v1.7h-9.5Zm3.8,3.8v-9.2h1.8v9.2h-1.8Z"/>
        <path class="uuid-8663df1d-53fb-4141-8493-0cc17eebc1a2" d="M145.6,72.4v-14.8h6.6c1.7,0,3,.3,3.9,1,.9,.7,1.4,1.6,1.4,2.8s-.2,1.5-.5,2c-.4,.5-.8,1-1.4,1.3-.6,.3-1.3,.4-2,.4l.4-.6c.8,0,1.6,.1,2.2,.4s1.2,.7,1.5,1.3c.4,.6,.6,1.3,.6,2.1,0,1.3-.5,2.2-1.4,2.9-.9,.7-2.4,1-4.2,1h-7Zm2.1-1.7h4.9c1.2,0,2.1-.2,2.7-.6,.6-.4,.9-1,.9-1.9s-.3-1.5-.9-1.9c-.6-.4-1.5-.6-2.7-.6h-5v-1.7h4.5c1.1,0,1.9-.2,2.5-.6,.6-.4,.9-1,.9-1.8s-.3-1.4-.9-1.8c-.6-.4-1.4-.6-2.5-.6h-4.3v11.4Z"/>
        <path class="uuid-8663df1d-53fb-4141-8493-0cc17eebc1a2" d="M163.7,72.4v-14.8h2.1v12.9h8v1.8h-10.1Z"/>
        <path class="uuid-8663df1d-53fb-4141-8493-0cc17eebc1a2" d="M184.7,72.6c-1.1,0-2.2-.2-3.1-.6-1-.4-1.8-.9-2.5-1.6s-1.3-1.5-1.6-2.4c-.4-.9-.6-1.9-.6-3s.2-2.1,.6-3c.4-.9,.9-1.7,1.6-2.4s1.5-1.2,2.5-1.6c1-.4,2-.6,3.1-.6s2.2,.2,3.1,.6c.9,.4,1.8,.9,2.5,1.6s1.3,1.5,1.6,2.4c.4,.9,.6,1.9,.6,3s-.2,2.1-.6,3c-.4,.9-.9,1.7-1.6,2.4s-1.5,1.2-2.5,1.6c-1,.4-2,.6-3.1,.6Zm0-1.9c.8,0,1.6-.1,2.3-.4,.7-.3,1.3-.7,1.8-1.2,.5-.5,.9-1.1,1.2-1.8,.3-.7,.4-1.4,.4-2.3s-.1-1.6-.4-2.3c-.3-.7-.7-1.3-1.2-1.8-.5-.5-1.1-.9-1.8-1.2-.7-.3-1.5-.4-2.3-.4s-1.6,.1-2.3,.4-1.3,.7-1.8,1.2c-.5,.5-.9,1.1-1.2,1.8-.3,.7-.4,1.4-.4,2.3s.1,1.6,.4,2.3c.3,.7,.7,1.3,1.2,1.8,.5,.5,1.1,.9,1.8,1.2s1.5,.4,2.3,.4Z"/>
        <path class="uuid-8663df1d-53fb-4141-8493-0cc17eebc1a2" d="M204.5,72.6c-1.1,0-2.2-.2-3.1-.6-.9-.4-1.8-.9-2.5-1.6s-1.2-1.5-1.6-2.4c-.4-.9-.6-1.9-.6-3s.2-2.1,.6-3c.4-.9,.9-1.7,1.6-2.4s1.5-1.2,2.5-1.6,2-.6,3.1-.6,2.2,.2,3.2,.6c1,.4,1.8,1,2.5,1.7l-1.4,1.3c-.6-.6-1.2-1-1.9-1.3-.7-.3-1.5-.4-2.3-.4s-1.6,.1-2.3,.4-1.3,.7-1.8,1.2-.9,1.1-1.2,1.8c-.3,.7-.4,1.5-.4,2.3s.1,1.6,.4,2.3c.3,.7,.7,1.3,1.2,1.8s1.1,.9,1.8,1.2,1.5,.4,2.3,.4,1.6-.1,2.3-.4c.7-.3,1.3-.7,1.9-1.3l1.4,1.3c-.7,.8-1.5,1.3-2.5,1.7-1,.4-2,.6-3.2,.6Z"/>
        <path class="uuid-8663df1d-53fb-4141-8493-0cc17eebc1a2" d="M217.3,72.4h-2.1v-14.8h2.1v14.8Zm8.7-6.6h-8.9v-1.8h8.9v1.8Zm-.2-8.2h2.1v14.8h-2.1v-14.8Z"/>
      </g>
      <line class="uuid-42e35504-7f5b-4e94-9a5b-a208349f3cf7" x1="126.2" y1="103.8" x2="126.2" y2="0"/>
      <g>
        <path class="uuid-8663df1d-53fb-4141-8493-0cc17eebc1a2" d="M52.2,0c.1,0,.2,0,.2,.2V50.6c0,.1,0,.2-.2,.2H.2c-.1,0-.2,0-.2-.2V.2c0-.1,0-.2,.2-.2H52.2ZM4.5,46.3H47.9V4.5H4.5V46.3ZM45.6,6.6c0,0,.1,0,.1,.1V44c0,0,0,.1-.1,.1H6.8c0,0-.1,0-.1-.1V6.8c0,0,0-.1,.1-.1H45.6ZM11.2,39.7h30V11.1H11.2v28.5Z"/>
        <path class="uuid-8663df1d-53fb-4141-8493-0cc17eebc1a2" d="M52.2,52.2c0,0,.1,0,.1,.2v49.9c0,.1,0,.2-.1,.2h-4.2c-.1,0-.2,0-.2-.2V56.7H5v45.6c0,.1,0,.2-.1,.2H.7c-.1,0-.2,0-.2-.2V52.4c0-.1,0-.2,.2-.2H52.2Zm-27,6.6c0,0,.1,0,.1,.1v43.4c0,.1,0,.2-.1,.2h-4.2c-.1,0-.2,0-.2-.2V63.2H11.6v39.1c0,.1,0,.2-.2,.2H7.2c0,0-.1,0-.1-.2V58.9c0,0,0-.1,.1-.1H25.2Zm20.4,0c.1,0,.2,0,.2,.1v43.4c0,.1,0,.2-.2,.2h-4.2c-.1,0-.2,0-.2-.2V63.2h-9.3v39.1c0,.1,0,.2-.2,.2h-4.1c-.1,0-.2,0-.2-.2V58.9c0,0,0-.1,.2-.1h18Z"/>
        <path class="uuid-8663df1d-53fb-4141-8493-0cc17eebc1a2" d="M53.1,0V16.6c0,.1,0,.2,.1,.2h4.2c.1,0,.2,0,.2-.2V0h-4.5Z"/>
        <g>
          <path class="uuid-8663df1d-53fb-4141-8493-0cc17eebc1a2" d="M106.9,0H58.6c0,0-.2,0-.2,.2V50.6c0,.1,0,.2,.2,.2h4.2c0,0,.1,0,.1-.2V4.5h44V0Z"/>
          <path class="uuid-8663df1d-53fb-4141-8493-0cc17eebc1a2" d="M65.1,6.8V24.2c0,0,0,.1,.1,.1h41.7v-4.5h-37.3V11.1h37.3V6.6h-41.7c0,0-.1,0-.1,.1Z"/>
          <path class="uuid-8663df1d-53fb-4141-8493-0cc17eebc1a2" d="M106.9,26.5h-41.7c0,0-.1,0-.1,.1v24c0,.1,0,.2,.1,.2h4.2c.1,0,.2,0,.2-.2V31h37.3v-4.5Z"/>
        </g>
        <g>
          <path class="uuid-8663df1d-53fb-4141-8493-0cc17eebc1a2" d="M103.5,77.1l3.1-1.8v-15.3l-9.3-8H55c0,0-.2,0-.2,.2v49.9c0,.1,0,.2,.2,.2h44l7.7-7v-16.3l-3.1-1.8Zm-1.4,17.2l-4.1,3.4H59.3V56.4h37.4l5.5,4.4v33.4Z"/>
          <path class="uuid-8663df1d-53fb-4141-8493-0cc17eebc1a2" d="M99.9,78.1H61.6c0,0-.1,0-.1,.1v17.2c0,0,0,.1,.1,.1h35.9l2.6-2.3v-15.1c0,0,0-.1-.2-.1Zm-4.3,13.1h-29.7v-8.6h29.7v8.6Z"/>
          <path class="uuid-8663df1d-53fb-4141-8493-0cc17eebc1a2" d="M61.6,58.5c0,0-.1,0-.1,.1v17.2c0,0,0,.1,.1,.1h38.3c.1,0,.2,0,.2-.1l-.3-14.9-3.2-2.5H61.6Zm34,13.1h-29.7v-8.6h29.7v8.6Z"/>
        </g>
      </g>
    </g>
  </g>
</svg>